<svg xmlns="http://www.w3.org/2000/svg" width="38.924" height="29.193" viewBox="0 0 38.924 29.193"><defs><style>.a{fill:#6d5ad8;}</style></defs><path class="a" d="M33.247,19.462V6.487A3.253,3.253,0,0,0,30,3.244H8.92A3.253,3.253,0,0,0,5.676,6.487V19.462Zm-30.815.649V6.487A6.506,6.506,0,0,1,8.92,0H30a6.506,6.506,0,0,1,6.487,6.487V20.111a4.84,4.84,0,0,1,2.433,4.217,4.779,4.779,0,0,1-4.865,4.865H4.865A4.779,4.779,0,0,1,0,24.327,4.84,4.84,0,0,1,2.433,20.111Zm31.626,2.595h-10.7a6.331,6.331,0,0,1-7.785,0H4.865a1.622,1.622,0,1,0,0,3.244H34.058a1.622,1.622,0,1,0,0-3.244Z"/></svg>