<svg xmlns="http://www.w3.org/2000/svg" width="24.7" height="38" viewBox="0 0 24.7 38"><defs><style>.a{fill:#6d5ad8;}</style></defs><g transform="translate(-1 31)"><g transform="translate(1 -31)"><path class="a" d="M19.75,5.8V3.9a1.9,1.9,0,0,0-3.8,0V5.8h-1.9a8.55,8.55,0,0,0,0,17.1h7.6a4.75,4.75,0,1,1,0,9.5h-7.6a3.8,3.8,0,0,1-3.8-3.8,1.9,1.9,0,0,0-3.8,0,7.6,7.6,0,0,0,7.6,7.6h1.9v1.9a1.9,1.9,0,1,0,3.8,0V36.2h1.9a8.55,8.55,0,1,0,0-17.1h-7.6a4.75,4.75,0,0,1,0-9.5h7.6a3.8,3.8,0,0,1,3.8,3.8,1.9,1.9,0,1,0,3.8,0,7.6,7.6,0,0,0-7.6-7.6Z" transform="translate(-5.5 -2)"/></g></g></svg>