<svg xmlns="http://www.w3.org/2000/svg" width="685.25" height="478.713" viewBox="0 0 685.25 478.713"><defs><style>.a,.g{fill:#effafa;}.a,.b,.c,.e,.f,.k,.l,.m,.n,.q,.r,.s,.t,.u{fill-rule:evenodd;}.b{fill:#dff6f4;}.c{fill:#dee6f3;}.d,.n{fill:#fff;}.e{fill:#ecdaf8;}.f,.h{fill:#cff1ef;}.i,.s{fill:#e9d2f4;}.j{fill:#be79df;}.k,.q{fill:#4dd0e1;}.l{fill:#ffd5b0;}.m,.p,.q{opacity:0.1;}.o,.u{fill:#fbcffc;}.r{fill:#d296e9;}</style></defs><g transform="translate(0 17.221)"><path class="a" d="M256.136,95.115c6.928,14.917,2.488,74.15-21.508,36.212-8.79-13.9-33.673-4.1-42.757-17.822s4.037-33.777,19.978-37.838S247.322,76.142,256.136,95.115Z" transform="translate(81.803 -49.095)"/><g transform="translate(0 141.456)"><path class="b" d="M202.49,288.179c12.671.739,25.7-11.614,28.3-16.035s-21.276,3.777-17.926-1.654,24.1-7.482,31.327-20.078c4.492-7.833,7.568-19.831.948-23.124-7.226-3.677-14.386,15.059-25.375,13.15-3.819-.663-8.444-2.682-6.762-7.274,2.805-14.6,28.289-8.5,34.573-23.575,1.805-4.331,3.189-10.378-2.18-11.823-10.832-4.359-18.86,18.087-31.474,13.614a7,7,0,0,1-4.568-8.752c4.132-12.775,23.091-4.634,30.792-15.708,5.17-7.435,8.762-20.258,2.687-23.044-6.478-3.056-14.159,15.244-25.508,14.206-3.748-.346-8.4-1.924-7.435-6.151,1.042-8.529,14.33-7.26,20-15.282,3.663-5.193,9.539-13.325,4.985-15.509-4.933-2.549-20.741,10.828-23.191,8.444s14.728-9.6,13.406-17.969c-.559-4.175-4.7-5.563-8.771-5.644-6.156-.118-13,10.188-13.6,8.008S216,122.607,213.92,117.252c-1.881-4.952-12.221-5.658-16.7-1.189-4.388,4.369,5.994,13.657,1.18,16.268-5.411,3.042-15.727-9.482-19.476-8.492-3.715.962,2.237,7.686,4.615,12.173,2.848,5.355,11.439,11.813,8.951,12.7s-17.8-13.69-18.907-9.155,15.031,22.366,14.486,27.309-10.913-11.766-16.661-7.539c-7.985,5.492-9.183,19.12-3.417,28.906,4.383,7.435,18.253,2.587,20.471,8.368,1.99,4.317-4.7,6.933-9.392,7.89-9.368,1.914-16.661-10.709-23.428-7.141-4.151,1.531-1.346,6.217.426,9.458,6.961,12.718,28.417,17.035,30.351,21.428s-15.926-9.482-22.608-3.867c-7.117,5.98-5.516,16.514-.46,24.745,6.98,11.363,28.308,10.624,30.763,14.87s-18.263-.436-20.93,2.128,6.193,5.032,10.254,8.127C190.767,279.825,193.293,287.643,202.49,288.179Z" transform="translate(-50.58 -45.524)"/><g transform="translate(16.427 11.001)"><path class="c" d="M232.567,237.664l6.018-36.449a476.615,476.615,0,0,0-36.833-47.67L189.616,175.92l-.791-36.535c-21.494-22.527-42.444-39.264-53.532-38.184q-.7,37.082,6.98,67.137l11.633,4.511-9.634,2.725q9.382,31.5,28.512,54.816l18.282,4.383-11.491,3.308a153.013,153.013,0,0,0,33.308,26.37q15.133,8.764,37.549,4.852,8.679-17.955,7.662-26.712c.28-6.326-4.762-17.642-13.017-31.213Z" transform="translate(-135.234 -101.153)"/><g transform="translate(12.818 25.445)"><path class="d" d="M254.922,263.283a1.014,1.014,0,0,1-1.322.052c-.777-.621-78.291-63.426-115.589-155.426a1.01,1.01,0,0,1,1.872-.758c37.1,91.517,114.205,153.991,114.978,154.607a1.01,1.01,0,0,1,.156,1.422C254.989,263.212,254.956,263.25,254.922,263.283Z" transform="translate(-137.939 -106.522)"/></g></g><g transform="translate(85.297)"><path class="e" d="M191.651,237.08l19.263-23.826a395.279,395.279,0,0,0-7.056-49.462l-17.912,11.174,14.386-26.678c-6.283-25.048-14.538-45.7-22.982-49.457q-15.687,26.463-22.447,51.281l6.544,8.018-8.065-1.976a128.684,128.684,0,0,0-1.872,51.21L162.9,218.007l-9.638-2.317a126.905,126.905,0,0,0,13.23,32.654q7.328,12.517,25.1,18.874,13.6-9.4,16.457-16.13c2.791-4.45,3.786-14.675,3.388-27.844Z" transform="translate(-149.767 -98.831)"/><g transform="translate(23.557 23.847)"><path class="d" d="M177.78,264.515a.835.835,0,0,1-.976-.5c-.308-.768-30.507-77.8-19.75-159.426a.839.839,0,0,1,1.663.223c-10.7,81.2,19.338,157.819,19.642,158.587a.837.837,0,0,1-.464,1.085Z" transform="translate(-154.738 -103.863)"/></g></g><path class="f" d="M278.352,247.739c8.582-9.676,6.918-27.9,5.013-32.763s-10.4,19.409-12.628,13.3,9.207-24.011,3.687-37.738c-3.435-8.539-11.1-18.566-17.907-15.344-7.506,3.464,2.976,21.011-5.483,28.6-2.938,2.639-7.473,5.07-10.089.829-9.918-11.453,11.036-28.005,2.938-42.543-2.327-4.175-6.293-9.1-10.837-5.71-10.321,5.919,2.578,26.5-8.956,33.777a7.139,7.139,0,0,1-9.89-1.867c-7.615-11.358,10.856-21.4,6.847-34.554-2.687-8.823-10.686-19.788-16.751-16.68-6.53,3.255,3.274,20.945-4.715,29.375-2.639,2.782-6.833,5.506-9.61,2.076-6.17-6.217,3.227-16.054.379-25.645-1.848-6.212-4.649-16.04-9.269-13.775-5.151,2.341-4.416,23.432-7.866,23.887s1.6-17.841-5.933-22.063c-3.691-2.185-7.411.256-10.046,3.459-3.98,4.852-.043,16.836-2.166,15.936s-.725-17.808-6.321-19.518c-5.151-1.621-12.24,6.212-11.491,12.619.73,6.269,14.713,3.819,13.77,9.316-.986,6.25-17.509,6.61-19.082,10.235-1.578,3.578,7.558,3.056,12.652,3.98,6.08,1.1,16.67-1.706,15.813.848s-22.191,5.615-19.253,9.359,27.38,2.076,30.991,5.629-16.3,1.317-16.538,8.582c-.644,9.856,9.51,19.4,20.978,20.964,8.714,1.18,13.586-12.974,19.608-11.107,4.715,1.133,2.587,8.136.393,12.5-4.374,8.7-19.078,6.582-20.495,14.249-1.388,4.284,4.132,4.994,7.842,5.62,14.571,2.45,31.559-12,36.3-10.776s-17.637,6.767-17.357,15.656c.294,9.468,9.738,14.832,19.514,15.979,13.5,1.578,26.361-15.96,31.313-15.249s-11.87,14.344-11.505,18.1,7.937-1.782,12.974-3.08C264.268,251.852,272.125,254.766,278.352,247.739Z" transform="translate(-131.767 13.013)"/></g><path class="g" d="M701.615,493.226H200.749s-130.762-238.153,0-124.043,123.716,2.654,66.492-83.641S246.6,87.274,413.664,201.934c96.033,65.9-23.371-146.257,101.629-132.292,130.9,14.633,181.56,155.109,190.582,228.557s51.078,55.518,68.321,116.267S701.615,493.226,701.615,493.226Z" transform="translate(-91.144 -68.979)"/><g transform="translate(51.829 423.91)"><rect class="h" width="596.824" height="3.67"/></g></g><g transform="translate(334.589 50.902)"><path class="i" d="M424,76.087H229.645c-11.918,0-27.237,13.879-27.19,26.28l6.98,337.825c.047,12.4,9.714,22.423,21.632,22.423l193.454,7.369c11.918,0,22.409-17.391,22.366-29.792L445.626,98.51C445.584,86.109,435.917,76.087,424,76.087Zm15.41,360.85a10.715,10.715,0,0,1-10.491,10.96H227.461a10.853,10.853,0,0,1-10.572-10.96L215.666,105.21a10.7,10.7,0,0,1,10.5-10.9H427.615a10.755,10.755,0,0,1,10.572,10.9Z" transform="translate(-202.081 -76.087)"/><path class="j" d="M418.2,77.786H223.842c-11.918,0-21.509,10.022-21.466,22.423l1.26,341.682c.043,12.406,9.714,22.428,21.627,22.428H419.618c11.918,0,21.513-10.022,21.466-22.428l-1.256-341.682C439.78,87.808,430.114,77.786,418.2,77.786Zm15.415,360.85a10.722,10.722,0,0,1-10.5,10.96H221.662a10.854,10.854,0,0,1-10.577-10.96l-1.218-331.722a10.7,10.7,0,0,1,10.491-10.9H421.816a10.759,10.759,0,0,1,10.572,10.9Z" transform="translate(-202.376 -69.735)"/><path class="d" d="M235.215,83.188a4.361,4.361,0,1,1-4.374-4.535A4.43,4.43,0,0,1,235.215,83.188Z" transform="translate(-112.182 -66.494)"/><path class="d" d="M276.615,84.188h-43.33a2.524,2.524,0,0,1-2.469-2.559h0a2.5,2.5,0,0,1,2.45-2.559H276.6a2.518,2.518,0,0,1,2.469,2.559h0A2.5,2.5,0,0,1,276.615,84.188Z" transform="translate(-96.05 -64.935)"/></g><g transform="translate(333.893 98.391)"><g transform="translate(0 27.039)"><path class="k" d="M303.71,108.6c-.355,2.26-.711,4.639-1.189,7.26-4.876,24.627-17.846,61.147-24.982,61.266-2.142-.119-9.52-6.539-19.035-15.941a739.228,739.228,0,0,1-51.513-57.342c-.834-.952-1.549-1.9-2.26-2.739l.474-.474,1.9-1.786,4.042-4.042.479-.479,2.023,1.9,55.082,52.821L287.054,108.6C291.574,101.341,303.828,100.862,303.71,108.6Z" transform="translate(-192.879 -82.456)"/><path class="l" d="M220.979,104.629l-4.047,4.047-1.9,1.782c-.118-.118-.237-.355-.474-.474l-.119-.118c-7.852-9.4-17.012-19.632-9.278-17.846.948,2.616,2.26,4.995,5.231,6.307a11.108,11.108,0,0,0,3.81,1.066c3.45.36,4.995,2.857,6.184,4.525a.367.367,0,0,1,.118.237Z" transform="translate(-202.229 -91.815)"/><path class="m" d="M270,171.017a7.831,7.831,0,0,1-2.142-.479A739.228,739.228,0,0,1,216.34,113.2c-.242.355-2.26-2.739-2.26-2.739a2.591,2.591,0,0,1,.355-.592c-7.852-9.4-17.012-19.632-9.278-17.846.948,2.616,2.26,4.995,5.231,6.307a34.2,34.2,0,0,0,5.473,9.278,1.438,1.438,0,0,1,.6.592l1.9,1.9c4.4,4.4,9.752,8.33,16.3,16.182C246.914,141.036,258.1,154.6,270,159.355S273.919,171.017,270,171.017Z" transform="translate(-202.229 -91.815)"/></g><g transform="translate(78.446 132.166)"><path class="l" d="M229.91,157.686h-8.326l.154-3.014,7.917-.919.2-.051Z" transform="translate(-208.317 34.428)"/><path class="c" d="M276.236,114,272.2,127.434l-.256.919L267.4,143.474l-3.985,13.178-.971,3.27-3.066,10.164-10.52,34.838-2.962,9.908c2.554,27.02-.2,62.265-3.118,91.28H228.883l-9.908-94.805a262.154,262.154,0,0,1,7.2-71.766c1.071-4.445,2.246-8.89,3.625-13.282a4.1,4.1,0,0,1,.308-1.071c.408-1.483.815-2.914,1.327-4.4,0-.1.052-.152.052-.251v-.052l.3-.919c.412-1.483.971-3.014,1.431-4.549h.872l1.17-.047,1.635-.052,16.348-.36,14.405-.355h.1Z" transform="translate(-218.784 -114)"/><path class="m" d="M246.489,119.109l-.663,3.834-1.024,6.383-8.582,51.646-2.45,14.761c2.554,27.02-.2,62.265-3.118,91.28h-3.322c.256-1.227.46-2.554.668-3.933,2.758-18.03,2.706-42.8-1.943-55.778-6.028-16.6-6.691-53.992,7.866-86.683a109.474,109.474,0,0,1,8.221-15.225c.616-.971,1.227-1.938,1.943-2.909C244.854,121.36,245.669,120.237,246.489,119.109Z" transform="translate(-206.66 -94.899)"/></g><path class="m" d="M270.542,98.867c-4.871,24.57-17.827,61.114-24.93,61.294-5.985-.45-18.225-13.448-32.341-30.289a63.433,63.433,0,0,0,5,4.241,62.357,62.357,0,0,0,9.292,5.942c2.052,1.071,10.724,8.312,12.955,8.847,6.79,1.564,4.132-8.909,7.842-14.851,2.009-3.26,3.592-10.06,4.71-13.77,2.412-7.909,9.245-11.406,14.206-18.064A16.432,16.432,0,0,1,270.542,98.867Z" transform="translate(-160.948 -38.41)"/><g transform="translate(105.4 114.643)"><path class="l" d="M240.775,158.25h-8.429l-.307-2.2,6.488-2.094,1.276-.408Z" transform="translate(-196.179 51.387)"/><path class="c" d="M271.365,319.938h-14.2l-27.636-89.7a116.244,116.244,0,0,1-1.938-11.491c-.152-1.587-.36-3.17-.512-4.852-1.175-11.9-1.891-26.664-2.3-40.354-.2-8.174-.308-15.889-.308-22.428,0-3.98,0-7.454.052-10.368.052-3.881.2-6.591.308-7.662l7.151-4.7,9.5-6.283h.052l2.4-1.63,1.943-1.279h.052v-.052l6.895-4.544,4.341-2.862.1-.052,2.042-1.379c.36,2.094.715,4.089,1.023,6.08.1.663.256,1.379.3,2.042.36,2.094.663,4.089.919,6.08.36,2.4.616,4.649.872,6.895a224.517,224.517,0,0,1,1.426,23.091c0,1.635,0,3.165-.047,4.7-.052,3.265-.2,6.331-.46,9.245-1.791,22.883-7.767,36.165-6.743,60.071C264.523,254.962,268.607,290.72,271.365,319.938Z" transform="translate(-224.472 -110.302)"/><path class="m" d="M271.181,319.938h-4.649c.1-1.431.1-2.857.1-4.289-.052-21.049-8.43-43.524-19.769-73.15-12.567-32.64,13.69-52.712,0-66.762-1.739-1.786-3.374-3.573-4.9-5.26a100.819,100.819,0,0,1-6.487-8.226c-.971-1.327-1.891-2.654-2.658-3.933a42.707,42.707,0,0,1-2.6-4.492,45.67,45.67,0,0,1-4.957-12.771,23.092,23.092,0,0,1-.611-7.97l7.151-4.7,9.5-6.283h.052l2.4-1.63,1.943-1.279h.052v-.052l6.895-4.544,4.341-2.862.1-.052,2.042-1.379c.36,2.094.715,4.089,1.023,6.08.1.663.256,1.379.3,2.042.36,2.094.663,4.089.919,6.08.36,2.4.616,4.649.872,6.895a224.517,224.517,0,0,1,1.426,23.091c0,1.635,0,3.165-.047,4.7-.052,3.265-.2,6.331-.46,9.245-1.791,22.883-7.767,36.165-6.743,60.071C264.338,254.962,268.423,290.72,271.181,319.938Z" transform="translate(-224.288 -110.302)"/></g><path class="n" d="M287.741,207.36Q254.9,226.928,220.728,196.1c1.208-1.294,2.322-2.635,3.35-3.928,28.545-36.587-11.974-74.742,8.487-89.972,17.557-10.188,30.27-9.994,40.766,2.284,1.654,2.549,3.952,5.175,4.848,8.079C285.149,135.836,269.555,169.925,287.741,207.36Z" transform="translate(-133.069 -53.268)"/><path class="m" d="M287.741,193.418q-32.839,19.568-67.013-11.259c1.208-1.294,2.322-2.635,3.35-3.928,5.274,2.189,10.411,5.094,15.9,6.658,5.449,1.564,8.444,2.289,13.353-.479,12.742-7.179,4.53-28.65,4.667-31.327.09-1.786,14.68,10.093,14.368,8.392q-2.545-13.8-5.089-27.517c-.938-5.047-1.876-10.183-1.611-15.325.223-5.137,1.744-10.406,5.227-14.206a23.417,23.417,0,0,1,7.283-5.8C285.149,121.893,269.555,155.983,287.741,193.418Z" transform="translate(-133.069 -39.326)"/><path class="l" d="M239.785,108.962a4.659,4.659,0,0,1-1.189.948,8.852,8.852,0,0,1-3.687,1.786c-3.691,1.071-7.733.237-8.8-1.786a7.75,7.75,0,0,0,2.26-4.758,57.63,57.63,0,0,0,0-7.852c0-2.023,0-4.047.118-5.947l7.492,3.331,2.5,1.071.592,5.71Z" transform="translate(-112.966 -66.502)"/><path class="m" d="M238.193,108.962a4.659,4.659,0,0,1-1.189.948,8.852,8.852,0,0,1-3.687,1.786v-.952c-.123-.952-1.431-.952-1.9-1.782-.834-1.55-.6-2.26-2.616-2.384l-2.265-.118c.242-2.26.123-5.592.242-9.16,0-2.023,0-4.047.118-5.947l7.492,3.331a9.673,9.673,0,0,1,.716,2.5c.237,1.545,1.308,2.853,2.379,4.284Z" transform="translate(-111.374 -66.502)"/><path class="l" d="M245.94,88.5l-2.8,23.622q-1.3.647-2.592,1.294c-8.411,3.881-13.263,3.236-14.557-2.156a21.854,21.854,0,0,1-.54-7.013c.218-5.066,1.943-10.354,5.07-16.069Z" transform="translate(-115.719 -78.365)"/><path class="m" d="M245.876,88.5l-2.8,23.622q-1.3.647-2.592,1.294c-.1-.218-.213-.322-.322-.54a27.8,27.8,0,0,0-1.943-3.45c-.862-1.189.422-4.748-.768-5.611-1.185-.644-4.838,1.294-6.132.862a15.744,15.744,0,0,0-5.5-.54.643.643,0,0,0-.431.109c.218-5.066,1.943-10.354,5.07-16.069Z" transform="translate(-115.654 -78.365)"/><path class="k" d="M275.142,203.729l-9.994,5.71-3.805,2.142v.118l-11.657,6.662-22.963-68.051,8.686-30.573,6.662-24.39c4.042,1.071,8.089,4.284,12.012,11.065l.6,8.681,3.094,44.732Z" transform="translate(-110.656 -51.566)"/><path class="m" d="M264.064,188.151l-9.994,5.71L250.266,196c5.71-36.288-4.284-27.124-14.751-47.708-10.591-20.58-6.07-22.959,8.089-48.779l3.094,44.732Z" transform="translate(-99.578 -35.987)"/><path class="k" d="M245.678,144.858,224.638,212.54l-4.018-8.8-.938-2.014,7.9-44.093.313-5.137,2.947-48.339c4.691-6.255,8.937-8.041,13.093-8.62Z" transform="translate(-136.979 -50.852)"/><path d="M226.52,103.477c7.421,7.605,10.226-.787,15.533,4.8s-4.478,7.762,3.36,19,10.079,10.6,14.879,2.6-3.2-7.037-3.677-16.637,5.279-18.556-1.6-21.437-9.278.962-9.278.962-1.441-8.16-9.122-6.4S220.744,97.559,226.52,103.477Z" transform="translate(-118.689 -86.109)"/><g transform="translate(25.971 72.687)"><path class="o" d="M272.511,169.928H227.082c-2.919,0-5.838-2.161-6.345-4.7l-1.9-8.757-11.041-49.869c-.507-2.54,1.4-4.568,4.317-4.568h45.429a1.659,1.659,0,0,1,.763.123,6.484,6.484,0,0,1,5.582,4.445L276.7,165.232C277.335,167.767,275.43,169.928,272.511,169.928Z" transform="translate(-207.71 -99.242)"/><path class="j" d="M228.794,105v.635a3.005,3.005,0,0,1-3.3,3.047h-8.885A5.212,5.212,0,0,1,211.664,105v-.635a1.857,1.857,0,0,1,.128-.886,3.011,3.011,0,0,1,3.17-2.033h8.885A5.271,5.271,0,0,1,228.794,105Z" transform="translate(-192.926 -101.448)"/><path class="p" d="M263.736,169.831H218.307c-2.919,0-5.838-2.161-6.345-4.7l-1.9-8.757c4.061,1.142,8.25-1.9,10.155-5.454a16,16,0,0,1,2.535-4.317c2.791-2.668,7.359-1.4,10.913,0q5.139,2.09,10.278,4.189c2.919,1.142,6.473,2.284,9.136.379,2.161-1.521,2.668-4.44,2.668-6.98a17.23,17.23,0,0,0-1.27-7.615A36.577,36.577,0,0,0,251.046,131c-4.189-6.217-6.345-13.576-7.738-20.94-.384-2.663-.512-5.833,1.649-7.231a6.463,6.463,0,0,1,3.426-.763h1.142a6.484,6.484,0,0,1,5.582,4.445l12.818,58.626C268.56,167.67,266.655,169.831,263.736,169.831Z" transform="translate(-198.934 -99.145)"/><path class="p" d="M228.794,105v.635a3.005,3.005,0,0,1-3.3,3.047h-8.885A5.212,5.212,0,0,1,211.664,105v-.635a1.857,1.857,0,0,1,.128-.886c.128,0,.128.128.251.128,1.142.507,2.033,1.142,3.175,1.521,2.535.886,5.454,0,7.994-.886.379-.128.886-.256,1.014-.635.128-.128,0-.384,0-.635a3.084,3.084,0,0,0-.886-1.526h.507A5.271,5.271,0,0,1,228.794,105Z" transform="translate(-192.926 -101.448)"/></g><g transform="translate(80.608 54.846)"><path class="k" d="M292.695,166.805c-2.142,9.634-37.354,3.805-63.886-1.549-1.308-.237-2.616-.474-3.805-.716a19.569,19.569,0,0,0-2.26-.474v-.711l-.242-1.431-.474-6.307,4.4.123h.716l2.971.118,43.662,1.545c-8.444-18.083-12.846-35.928-13.443-53.418l11.3-6.3c3.928,4.4,7.975,12.254,11.425,21.414C289.482,135.99,294,156.93,292.695,166.805Z" transform="translate(-208.817 -97.683)"/><path class="k" d="M238.043,123.277a2.38,2.38,0,0,1-.474.948c-.242.237-1.189,0-2.142-.355a16.419,16.419,0,0,0-2.26-.592.44.44,0,0,0-.242.114c-4.995,4.881-13.917-3.45-13.68-8.444a2.653,2.653,0,0,1,.119-1.071c.834-4.521,4.521-1.663,7.615.716,1.668,1.189-1.071-6.189-.6-6.189,2.023.474,2.384.355,5.473,5.592l5.118,1.426.6.118v.123C237.924,116.373,239.232,120.657,238.043,123.277Z" transform="translate(-219.24 -57.605)"/><path class="q" d="M303.118,149.91c-2.142,9.634-37.354,3.805-63.886-1.549-1.132-.2-6.065-1.9-6.065-1.9a.44.44,0,0,0-.242.114c-4.995,4.881-13.917-3.45-13.68-8.444a2.653,2.653,0,0,1,.119-1.071,11.7,11.7,0,0,1,3.568,2.739c1.9,2.019,5.473,3.805,9.994,5.231a14.075,14.075,0,0,0,2.379.6,19.088,19.088,0,0,0,2.739.834,3.357,3.357,0,0,1,1.071.237c14.4,3.09,34.023,3.687,45.206,1.308,16.538-3.45,11.425-15.7,9.165-45.8C299.905,119.1,304.426,140.035,303.118,149.91Z" transform="translate(-219.24 -80.788)"/></g></g><g transform="translate(76.567 125.384)"><path class="m" d="M147.925,167.815c0,1.379,7.681,2.5,17.163,2.5s17.163-1.123,17.163-2.5-7.686-2.5-17.163-2.5S147.925,166.431,147.925,167.815Z" transform="translate(-147.925 183.013)"/><g transform="translate(37.453 129.165)"><path class="l" d="M171.2,179.649l-8.226-.109-6.2-.114a40.412,40.412,0,0,0,.934-4.165,61.356,61.356,0,0,0,1.095-13.766c0-.877-.052-1.758-.109-2.687l5.6.161,4.606.114c-.052,1.095-.052,2.246,0,3.345a73.212,73.212,0,0,0,1.317,12.775C170.544,176.688,170.818,178.166,171.2,179.649Z" transform="translate(-152.28 29.532)"/><path class="r" d="M187.774,175.56c-10.145,1.919-13.984-3.672-19.253-1.042a11.626,11.626,0,0,0-3.071,2.3l-5.923-.052-2.028-4.222c-1.26-3.018-1.095-6.421.441-10.2.052.052.161.052.218.109a11.362,11.362,0,0,0,4.113,1.317,16.293,16.293,0,0,0,8.392-1.374c.166-.052.275-.109.436-.161C175.16,169.528,197.81,172.158,187.774,175.56Z" transform="translate(-152.726 42.34)"/><path class="s" d="M198.776,140.889q-.249,62.855-21.224,168.87a18.4,18.4,0,0,1-5.1,1.265,20.145,20.145,0,0,1-5.43.109,30.343,30.343,0,0,1-4.663-1.042,28.035,28.035,0,0,1-3.232-1.1c3.947-72.231-12.23-146.873,4.331-188.118l34.772-1.81C198.667,125.863,198.828,133.1,198.776,140.889Z" transform="translate(-155.829 -119.063)"/><path class="m" d="M183.729,319.743c-10.145,1.919-13.984-3.672-19.253-1.042-1.095-1.478-2.189-3.014-3.18-4.549-.659-1.043-1.37-2.142-1.919-3.236a15.2,15.2,0,0,1-1.151-2.962,5.642,5.642,0,0,1-.327-1.317c-.5-2.909.27-5.923,1.038-8.776.332-1.317.659-2.635.934-3.947.275-1.208.55-2.417.825-3.568a272.608,272.608,0,0,0,6.089-46.618c.161-3.014.218-6.193-.824-9.046-.986-2.687-2.9-4.938-3.9-7.624-1.587-4.445-.327-9.435.057-14.149.711-8.833-1.592-17.661-.877-26.494a76.507,76.507,0,0,1,2.578-13.107c3.507-13.6,5.539-29.232,10.965-42.23,2.36-5.705,3.952-6.582,9.435-6.8,2.744-.166,5.1-.275,7.406-.607q-.249,62.855-21.224,168.87a18.4,18.4,0,0,1-5.1,1.265,73.212,73.212,0,0,0,1.317,12.775c.166-.052.275-.109.436-.161C171.115,313.711,193.765,316.341,183.729,319.743Z" transform="translate(-148.681 -101.843)"/></g><g transform="translate(5.644 132.345)"><path class="l" d="M170.443,162.581a30.117,30.117,0,0,0-1.644,2.962,70.781,70.781,0,0,0-5.269,11.681c-.493,1.426-.929,2.853-1.37,4.331l-7.184-4.222v-.052l-5.212-3.075a38.636,38.636,0,0,0,2.909-3.18,55.531,55.531,0,0,0,7.786-11.3,26.961,26.961,0,0,0,1.317-2.412l2.635,1.587Z" transform="translate(-146.693 20.77)"/><path class="r" d="M174.126,186.543c-9.761-3.454-10.2-10.254-16.178-10.586a12.571,12.571,0,0,0-3.734.493l-5.1-3.014.384-4.663c.384-3.293,2.194-6.141,5.43-8.61.057.052.109.166.166.218a13.276,13.276,0,0,0,3.014,3.293,16.569,16.569,0,0,0,7.842,2.9c.166,0,.275.057.441.057C166.284,175.023,184.547,188.571,174.126,186.543Z" transform="translate(-149.116 31.414)"/><path class="s" d="M237.325,216.264q-28.3,38.667-70.2,91.152a19.7,19.7,0,0,1-4.99-1.369,21.74,21.74,0,0,1-6.364-3.952c-.659-.545-1.317-1.2-1.976-1.862-.768-.824-1.478-1.7-2.246-2.635,19.741-30.327,35.265-56.432,50.4-85.612,9.491-16.675.057-36.909-1.7-60.825a77.355,77.355,0,0,1,3.4-30.6l38.885-.824Q253.97,188.183,237.325,216.264Z" transform="translate(-140.027 -119.734)"/><path class="m" d="M164.909,306.047a70.781,70.781,0,0,0-5.269,11.681c.166,0,.275.057.441.057-.109,8.387,18.154,21.935,7.733,19.907-9.761-3.454-10.2-10.254-16.178-10.586a20.74,20.74,0,0,1-.716-3.62,21.637,21.637,0,0,1,.166-5.648v-.052a28.873,28.873,0,0,1,.711-2.962,42.484,42.484,0,0,1,6.748-12.728c.659-.929,1.317-1.81,1.976-2.687.877-1.095,1.753-2.194,2.63-3.237,5.321-6.525,10.643-13.107,16.016-19.632,4.331-5.374,8.667-10.7,12.78-16.182a257.86,257.86,0,0,0,39.378-76.51c2.028-6.359,3.781-13.382,1.426-19.632-2.8-7.515-5.075-6.5-13.012-13.671-2.066-1.867-12.5-13.922-16.67-13.647-.711-9.6-.209-5.535,3.355-16.339l38.885-.824q11.437,68.449-5.208,96.53-28.3,38.667-70.2,91.152A19.7,19.7,0,0,1,164.909,306.047Z" transform="translate(-142.803 -119.734)"/></g><path class="l" d="M203.309,101.859c-.275,5.1-2.962,13.273-10.529,16.675a8.179,8.179,0,0,1-.99.436l-.768-.384a9.51,9.51,0,0,1-1.587-.166c-2.028-.327-5.1-1.422-3.952-4.881a3.784,3.784,0,0,1,.768-1.369c2.526-3.071,9.382-.825,11.463-5.814a20.393,20.393,0,0,1,1.592-3.237C201.333,99.5,203.527,97.964,203.309,101.859Z" transform="translate(-8.448 -62.751)"/><path class="r" d="M230.593,195.723q-15.552,14.067-43.989,10.7h-.052a153.419,153.419,0,0,1-30.55-7.35c17.22-31.919-2.36-86.162,20.182-95.488a71.723,71.723,0,0,1,40.093.5h.052c.223.052.5.161.716.218a12.918,12.918,0,0,1,1.479,1.592v.052a5.818,5.818,0,0,1,.933,1.426l.109.109c4.279,7.515,3.018,20.84,2.142,35.649-.275,3.843-.5,7.733-.55,11.685C220.827,169.343,222.253,184.26,230.593,195.723Z" transform="translate(-117.725 -57.564)"/><path class="l" d="M259.437,109.484c-.057.166-.166.332-.218.5-17.059,39.762-30.493,61.754-41.411,64.824-4.824,1.374-16.012-4.165-31.2-16.452-2.635-2.085-5.378-4.388-8.283-6.909-1.976-1.7-4-3.568-6.089-5.539-1.592-1.374-3.18-2.909-4.772-4.445l6.53-39.6a25.55,25.55,0,0,1,2.63,2.137l.109.109c5.705,5.213,14.1,15.742,22.816,27.972,1.592,2.3,3.237,4.606,4.829,6.966,3.289,4.829,6.634,9.762,9.814,14.481l38.283-50.13.218.218,5.212,4.554Z" transform="translate(-74.888 -54.198)"/><path class="l" d="M177.745,115.93a15.471,15.471,0,0,1-4.113,1.758,12.152,12.152,0,0,1-10.638-1.758l.545-4.772,1.426-12.775,9.6-1.265C173.3,104.8,174.343,111.049,177.745,115.93Z" transform="translate(-91.588 -71.942)"/><path class="m" d="M177.315,115.93a15.471,15.471,0,0,1-4.113,1.758,11.425,11.425,0,0,0-2.521-3.843,12.075,12.075,0,0,0-4.886-2.464,6.916,6.916,0,0,0-1.862-.332,2.154,2.154,0,0,0-.825.109l1.426-12.775,9.6-1.265C172.871,104.8,173.913,111.049,177.315,115.93Z" transform="translate(-91.158 -71.942)"/><path class="l" d="M163.791,118.686q14.742,7.854,18.305,1.4,3.533-5.665-3.852-26.735L162.592,94.78Z" transform="translate(-93.091 -86.033)"/><path class="t" d="M179.539,109q8.785,4.172,13.358.133,6.489-7.2.867-17.329-6.639.291-14.405,4.985-6.177-4.051-10.425-.526-7.549.49-6.918,11.382-3.142,4.855,5.369,9.837a50.856,50.856,0,0,0-4.246,8.278q4.08,5.6,11.79,6.193a8.23,8.23,0,0,0,6.17-3.369q-4.513-7.7-4.62-10.4.092-2.886,2.583-2.6,2.346.981,2,4.947a3.055,3.055,0,0,0,2.8-1.763A44.456,44.456,0,0,1,179.539,109Z" transform="translate(-98.414 -91.805)"/><path class="t" d="M186.678,101.046q-5.345-1.976-10.7,9.629,3.689,32.512-11.951,26.806-13.6-3.781-3.094-32.644,5.516-12.616,22.248-6.354Q185.437,101.4,186.678,101.046Z" transform="translate(-116.438 -74.605)"/><path class="r" d="M160.84,98.052a3.8,3.8,0,0,1,3.909-1.938,8.575,8.575,0,0,1,4.2,5.449q-.5,2.147-3.677,1.711Q165.929,101.206,160.84,98.052Z" transform="translate(-99.641 -75.724)"/><path class="r" d="M204.375,139.956c-3.128,6.25-8.117,11.52-12.837,15.519-1.7,1.426-3.4,2.692-4.933,3.786-2.635-2.085-5.378-4.388-8.283-6.909-1.976-1.7-4-3.568-6.089-5.539-1.592-1.374-3.18-2.909-4.772-4.445l5.98-40.747h.052c.659.493,1.374,1.095,2.194,1.81v.052c5.762,5.1,14.808,16.618,23.859,29.507C201.138,135.294,202.783,137.6,204.375,139.956Z" transform="translate(-74.888 -55.107)"/><path class="m" d="M288.442,101.859c-.275,5.1-2.962,13.273-10.529,16.675C260.854,158.3,247.42,180.288,236.5,183.359c-4.824,1.374-16.012-4.165-31.2-16.452-2.635-2.085-5.378-4.388-8.283-6.909-.332,14.533,1.095,29.45,9.435,40.913q-15.552,14.067-43.989,10.7c8.558-3.236,23.693-6.416,24.845-14.642.99-7.132,2.469-17.609,3.838-24.627.384-1.976,1.208-3.838,1.54-5.757.654-4.061-.659-8.117-1.758-12.121-.166-.607-.327-1.208-.493-1.81a50.017,50.017,0,0,1-1.317-16.618c2.635,4.222,5.43,8.335,8.449,12.283a156.454,156.454,0,0,0,12.448,14.59l.218.218c5.648,5.871,12.889,11.463,20.9,10.534,6.141-.659,11.188-5.1,14.974-9.984,10.97-14.149,15.244-33.564,28.465-45.249.659-.6,1.317-1.152,2.028-1.7.057-.057.166-.109.218-.166,2.8-2.085,6.255-4.061,7.572-7.459.768-2.085.384-4,.052-5.98C286.466,99.5,288.66,97.964,288.442,101.859Z" transform="translate(-93.581 -62.751)"/></g><g transform="translate(203.59 78.49)"><path class="e" d="M212.583,81.909a37.85,37.85,0,1,0,37.847,37.852A37.856,37.856,0,0,0,212.583,81.909Zm0,67.108a29.259,29.259,0,1,1,29.256-29.256A29.244,29.244,0,0,1,212.583,149.017Z" transform="translate(-174.731 -81.909)"/><path class="u" d="M213.792,100.006v7.188a2.946,2.946,0,0,1-2.966,2.933H202.95V118a2.946,2.946,0,0,1-2.933,2.966h-7.188A2.946,2.946,0,0,1,189.895,118v-7.876h-7.876a2.946,2.946,0,0,1-2.966-2.933v-7.188a2.946,2.946,0,0,1,2.966-2.933h7.876V89.2a2.946,2.946,0,0,1,2.933-2.966h7.188A2.946,2.946,0,0,1,202.95,89.2v7.876h7.876A2.946,2.946,0,0,1,213.792,100.006Z" transform="translate(-158.573 -65.751)"/></g><g transform="translate(523.323 214.569)"><path class="i" d="M400.659,114.763a4.113,4.113,0,0,1-4.142,4.085H246.29a4.058,4.058,0,0,1-3.729-2.45,3.621,3.621,0,0,1-.355-1.635,4.109,4.109,0,0,1,4.085-4.137H396.518A4.124,4.124,0,0,1,400.659,114.763Z" transform="translate(-242.205 -110.626)"/><path class="p" d="M400.379,114.763a4.113,4.113,0,0,1-4.142,4.085H246.009a4.058,4.058,0,0,1-3.729-2.45H363.5s22.779-1.279,25.589-5.772h7.151A4.124,4.124,0,0,1,400.379,114.763Z" transform="translate(-241.925 -110.626)"/></g><g transform="translate(538.596 139.633)"><path class="j" d="M374.468,107.123v48.064c0,6.8-16.14,20.333-22.982,20.333l-.36-.052L269.4,167.5a12.316,12.316,0,0,1-12.311-12.311L253.1,140.53l-7.61-28.043v-.1c.152-6.843,17.163-17.571,23.906-17.571H362.11A12.326,12.326,0,0,1,374.468,107.123Z" transform="translate(-245.185 -94.812)"/><path class="i" d="M362.813,108.856v48.016a12.3,12.3,0,0,1-11.444,12.311,4.845,4.845,0,0,1-.867.052H257.791a12.338,12.338,0,0,1-12.363-12.363V108.856a11.454,11.454,0,0,1,.308-2.654v-.1a12.385,12.385,0,0,1,12.055-9.605H350.5a12.246,12.246,0,0,1,10.572,6.032A12.464,12.464,0,0,1,362.813,108.856Z" transform="translate(-245.428 -88.527)"/><path class="p" d="M374.711,98.587v47.452c0,6.8-16.14,20.333-22.982,20.333l-.36-.052a4.845,4.845,0,0,1-.867.052H257.791a12.338,12.338,0,0,1-12.363-12.363V130.1c1.839.256,3.677.512,5.464.82.82.152,1.635.3,2.455.46a38.934,38.934,0,0,1,8.274,2.35c3.474,1.478,6.644,3.729,10.013,5.568,16.244,8.937,35.909,8.378,54.352,6.283a59.83,59.83,0,0,0,7.71-1.332c5.568-1.227,10.833-3.573,13.742-8.07a12.758,12.758,0,0,0,.82-1.431c1.99-3.985,1.839-8.582,2.142-12.974.412-6.179,1.791-12.515,5.521-17.467a17.842,17.842,0,0,1,5.156-4.649,14.474,14.474,0,0,1,10.984-2.047A10.9,10.9,0,0,1,374.711,98.587Z" transform="translate(-245.428 -85.665)"/><rect class="d" width="62.164" height="23.329" rx="0.76" transform="translate(13.968 16.058)"/><g transform="translate(13.968 48.537)"><rect class="d" width="8.516" height="8.516" rx="0.27"/><rect class="d" width="8.516" height="8.516" rx="0.27" transform="translate(17.883)"/><path class="d" d="M.27,0H8.246a.27.27,0,0,1,.27.27V8.246a.27.27,0,0,1-.27.27H.269A.269.269,0,0,1,0,8.246V.27A.27.27,0,0,1,.27,0Z" transform="translate(35.766)"/><rect class="d" width="8.516" height="8.516" rx="0.27" transform="translate(53.648)"/><rect class="d" width="8.516" height="8.516" rx="0.27" transform="translate(0 13.138)"/><rect class="d" width="8.516" height="8.516" rx="0.27" transform="translate(17.883 13.138)"/><path class="d" d="M.27,0H8.246a.27.27,0,0,1,.27.27V8.246a.27.27,0,0,1-.27.27H.269A.269.269,0,0,1,0,8.246V.27A.27.27,0,0,1,.27,0Z" transform="translate(35.766 13.138)"/><rect class="d" width="8.516" height="8.516" rx="0.27" transform="translate(53.648 13.138)"/></g><g transform="translate(12.669 47.716)"><path class="o" d="M.269,0H8.246a.269.269,0,0,1,.269.269V8.246a.27.27,0,0,1-.27.27H.27A.27.27,0,0,1,0,8.246V.269A.269.269,0,0,1,.269,0Z"/><path class="o" d="M.269,0H8.246a.269.269,0,0,1,.269.269V8.246a.27.27,0,0,1-.27.27H.27A.27.27,0,0,1,0,8.246V.269A.269.269,0,0,1,.269,0Z" transform="translate(17.883)"/><path class="o" d="M.269,0H8.246a.269.269,0,0,1,.269.269V8.246a.27.27,0,0,1-.27.27H.269A.269.269,0,0,1,0,8.246V.269A.269.269,0,0,1,.269,0Z" transform="translate(35.766)"/><path class="o" d="M.269,0H8.246a.27.27,0,0,1,.27.27V8.246a.27.27,0,0,1-.27.27H.27A.27.27,0,0,1,0,8.246V.269A.269.269,0,0,1,.269,0Z" transform="translate(53.648)"/><path class="o" d="M.269,0H8.246a.269.269,0,0,1,.269.269V8.246a.269.269,0,0,1-.269.269H.27A.27.27,0,0,1,0,8.246V.269A.269.269,0,0,1,.269,0Z" transform="translate(0 13.139)"/><path class="o" d="M.269,0H8.246a.27.27,0,0,1,.27.27V8.246a.269.269,0,0,1-.269.269H.27A.27.27,0,0,1,0,8.246V.269A.269.269,0,0,1,.269,0Z" transform="translate(17.883 13.139)"/><rect class="o" width="8.515" height="8.515" rx="0.269" transform="translate(35.766 13.139)"/><path class="o" d="M.269,0H8.246a.269.269,0,0,1,.269.269V8.246a.27.27,0,0,1-.27.27H.27A.27.27,0,0,1,0,8.246V.269A.269.269,0,0,1,.269,0Z" transform="translate(53.648 13.139)"/></g><g transform="translate(13.968 16.683)"><path class="o" d="M264.817,120.5l-2.933-16.673-3.272,6.185H248.376v-1.277h9.468l4.659-8.8,2.594,14.8,1.676-6h6.205l1.736-6.712,1.467,4.684,4.684-8.373,2.319,14.142,2.175-3.742h7.308l2.843-8L299,113.086l1.486-5.218,1.4,2.09,3.966-9.882,2.13,8.657h2.559v1.277h-3.557l-1.422-5.779-3.4,8.45-1.207-1.805L299,117.765l-3.632-12.828-1.806,5.073H286.1l-3.6,6.176-2.3-14.042-4.345,7.774-1.018-3.252-.868,3.344h-6.225Z" transform="translate(-248.376 -98.333)"/></g><path class="d" d="M285,113.171v3.834a1.315,1.315,0,0,1-1.327,1.327h-5.876v5.876a1.374,1.374,0,0,1-1.379,1.379h-3.781a1.377,1.377,0,0,1-1.379-1.379v-5.876h-5.871a1.32,1.32,0,0,1-1.332-1.327v-3.834a1.354,1.354,0,0,1,1.332-1.327h5.871v-5.876a1.334,1.334,0,0,1,1.379-1.327h3.781a1.331,1.331,0,0,1,1.379,1.327v5.876h5.876A1.349,1.349,0,0,1,285,113.171Z" transform="translate(-175.796 -58.061)"/></g><g transform="translate(513.282)"><g transform="translate(4.876)"><g transform="translate(145.361 161.787)"><path class="j" d="M273.07,102.8a1.277,1.277,0,1,1,0-2.554,15.786,15.786,0,0,0,4.658-.7,1.278,1.278,0,0,1,.758,2.44A18.365,18.365,0,0,1,273.07,102.8Z" transform="translate(-271.791 -99.487)"/></g><path class="j" d="M401.19,223.851a1.277,1.277,0,0,1-1.014-2.057,15.573,15.573,0,0,0,3.255-8.861,1.279,1.279,0,0,1,2.554.123,18.16,18.16,0,0,1-3.786,10.3A1.272,1.272,0,0,1,401.19,223.851Zm3.54-19.954a1.279,1.279,0,0,1-1.275-1.279V192.25a1.277,1.277,0,1,1,2.554,0v10.368A1.283,1.283,0,0,1,404.73,203.9Zm0-20.746a1.275,1.275,0,0,1-1.275-1.275V171.5a1.277,1.277,0,0,1,2.554,0v10.373A1.279,1.279,0,0,1,404.73,183.152Zm0-20.746a1.275,1.275,0,0,1-1.275-1.275V150.758a1.277,1.277,0,1,1,2.554,0v10.373A1.279,1.279,0,0,1,404.73,162.406Zm0-20.741a1.279,1.279,0,0,1-1.275-1.279V130.013a1.277,1.277,0,0,1,2.554,0v10.373A1.283,1.283,0,0,1,404.73,141.665Zm0-20.746a1.275,1.275,0,0,1-1.275-1.275V109.267a1.277,1.277,0,0,1,2.554,0v10.378A1.279,1.279,0,0,1,404.73,120.919ZM242.394,105.656a1.276,1.276,0,0,1-1.279-1.275V94.009a1.277,1.277,0,1,1,2.554,0v10.373A1.275,1.275,0,0,1,242.394,105.656Zm162.335-5.483a1.279,1.279,0,0,1-1.275-1.279V88.526a1.277,1.277,0,1,1,2.554,0V98.894A1.283,1.283,0,0,1,404.73,100.174ZM242.394,83.636h-1.279a18.139,18.139,0,0,1,3.274-10.472,1.276,1.276,0,1,1,2.094,1.46,15.581,15.581,0,0,0-2.815,8.975Zm161.473-4.113a1.279,1.279,0,0,1-1.213-.872A15.663,15.663,0,0,0,397.119,71a1.274,1.274,0,0,1-.261-1.786,1.287,1.287,0,0,1,1.787-.265,18.19,18.19,0,0,1,6.435,8.9,1.284,1.284,0,0,1-.81,1.616A1.321,1.321,0,0,1,403.867,79.523ZM253.516,68.932a1.279,1.279,0,0,1-.436-2.478,18.269,18.269,0,0,1,6.288-1.109h4.407a1.277,1.277,0,0,1,0,2.554h-4.407a15.668,15.668,0,0,0-5.411.957A1.435,1.435,0,0,1,253.516,68.932Zm134.723-1.024H388.2l-.441-.009h-9.89a1.277,1.277,0,0,1,0-2.554l10.411,0a1.28,1.28,0,0,1-.038,2.559ZM367.5,67.9H357.121a1.277,1.277,0,0,1,0-2.554H367.5a1.277,1.277,0,0,1,0,2.554Zm-20.75,0H336.38a1.277,1.277,0,1,1,0-2.554h10.368a1.277,1.277,0,1,1,0,2.554Zm-20.741,0H315.634a1.277,1.277,0,1,1,0-2.554h10.373a1.277,1.277,0,1,1,0,2.554Zm-20.746,0H294.893a1.277,1.277,0,1,1,0-2.554h10.368a1.277,1.277,0,1,1,0,2.554Zm-20.746,0H274.143a1.277,1.277,0,0,1,0-2.554h10.373a1.277,1.277,0,0,1,0,2.554Z" transform="translate(-241.115 -65.345)"/><g transform="translate(0 48.253)"><path class="j" d="M242.394,83.19a1.28,1.28,0,0,1-1.279-1.279V76.8a1.277,1.277,0,0,1,2.554,0v5.108A1.279,1.279,0,0,1,242.394,83.19Z" transform="translate(-241.115 -75.528)"/></g></g><path class="j" d="M243.456,89.236h0a2.625,2.625,0,0,1-2.625-2.625V76.536a2.625,2.625,0,0,1,2.625-2.625h0a2.625,2.625,0,0,1,2.625,2.625V86.61A2.625,2.625,0,0,1,243.456,89.236Z" transform="translate(-237.301 -33.32)"/><path class="j" d="M252.4,80.968c0,2.962-12.311,2.962-12.311,0h0a5.44,5.44,0,0,1,5.44-5.44h1.426a5.441,5.441,0,0,1,5.445,5.44Z" transform="translate(-240.086 -27.275)"/></g></svg>