<svg xmlns="http://www.w3.org/2000/svg" width="74.094" height="74.148" viewBox="0 0 74.094 74.148"><defs><style>.a{fill:#169fa4;}.b{fill:#003764;}.c{fill:#c194e5;}</style></defs><path class="a" d="M37.047,74.148a37.074,37.074,0,1,1,37.047-37.1,37.111,37.111,0,0,1-37.047,37.1m0-61.907A24.806,24.806,0,1,0,61.853,37.047,24.837,24.837,0,0,0,37.047,12.241"/><path class="b" d="M77.484,53.945a1.924,1.924,0,0,1-.542-.108,1.3,1.3,0,0,1-.65-1.733,7.71,7.71,0,0,1,1.733-2.437A7.953,7.953,0,0,1,86.908,48.1a8.135,8.135,0,0,1,4.008,3.954,1.309,1.309,0,1,1-2.383,1.083,5.281,5.281,0,0,0-2.654-2.654,5.4,5.4,0,0,0-5.958,1.029,5.516,5.516,0,0,0-1.137,1.625,1.657,1.657,0,0,1-1.3.812" transform="translate(-34.912 -21.718)"/><path class="b" d="M63.6,96.637a7.914,7.914,0,0,1-5.579-2.275,8.676,8.676,0,0,1-1.733-2.437,1.309,1.309,0,0,1,2.383-1.083,4.9,4.9,0,0,0,1.137,1.625,5.362,5.362,0,0,0,8.612-1.625,1.309,1.309,0,0,1,2.383,1.083A7.721,7.721,0,0,1,66.8,95.879a7.12,7.12,0,0,1-3.2.758" transform="translate(-25.745 -41.284)"/><path class="c" d="M40.224,58.049a6.824,6.824,0,1,1,6.824-6.824,6.865,6.865,0,0,1-6.824,6.824m0-10.995a4.17,4.17,0,1,0,4.17,4.17,4.208,4.208,0,0,0-4.17-4.17" transform="translate(-15.31 -20.352)"/></svg>